<svg width="22" height="20" viewBox="0 0 22 20" fill="none" xmlns="http://www.w3.org/2000/svg">
<path fill-rule="evenodd" clip-rule="evenodd" d="M11.0001 19L10.2935 18.4309C6.07789 15.0373 3.53233 12.9911 2.08344 10.3194C1.01677 8.35855 0.731212 6.42425 1.25566 4.72689C1.69566 3.30744 2.68677 2.16368 4.049 1.50821C4.75011 1.17051 5.51122 1 6.31344 1C8.22456 1 10.0235 1.99428 11.0001 3.53552C11.9768 1.99428 13.7779 1 15.6868 1C16.489 1 17.2501 1.17051 17.9501 1.5071C19.3135 2.16368 20.3046 3.30744 20.7446 4.72689C21.269 6.42425 20.9824 8.35855 19.9168 10.3194C18.4668 12.9922 15.919 15.0417 11.6979 18.4375L11.0001 19Z" stroke="black" stroke-width="1.2"/>
</svg>
