<svg width="23" height="22" viewBox="0 0 23 22" fill="none" xmlns="http://www.w3.org/2000/svg">
<path fill-rule="evenodd" clip-rule="evenodd" d="M2.09835 9.83805C2.09835 5.29375 5.79375 1.59938 10.337 1.59938C14.8793 1.59938 18.5747 5.29375 18.5747 9.83805C18.5747 14.3824 14.8793 18.0767 10.337 18.0767C5.79375 18.0767 2.09835 14.3824 2.09835 9.83805ZM17.3049 16.0319C18.7748 14.3803 19.673 12.2144 19.673 9.83805C19.673 4.68914 15.4839 0.5 10.337 0.5C5.19016 0.5 1 4.68914 1 9.83805C1 14.987 5.19016 19.1761 10.337 19.1761C12.7134 19.1761 14.8793 18.2738 16.5278 16.808L21.0597 21.3399C21.1685 21.4466 21.3092 21.5 21.4498 21.5C21.5894 21.5 21.73 21.4466 21.8368 21.3399C22.0513 21.1253 22.0513 20.7784 21.8368 20.5638L17.3049 16.0319Z" fill="black"/>
<path d="M17.3049 16.0319L16.9314 15.6995L16.6178 16.0519L16.9513 16.3855L17.3049 16.0319ZM16.5278 16.808L16.8814 16.4544L16.548 16.121L16.1956 16.4343L16.5278 16.808ZM21.0597 21.3399L20.7062 21.6934L20.7096 21.6968L21.0597 21.3399ZM21.8368 20.5638L22.1903 20.2103L21.8368 20.5638ZM2.59835 9.83805C2.59835 5.56993 6.06985 2.09938 10.337 2.09938V1.09938C5.51764 1.09938 1.59835 5.01756 1.59835 9.83805H2.59835ZM10.337 2.09938C14.6031 2.09938 18.0747 5.56989 18.0747 9.83805H19.0747C19.0747 5.0176 15.1554 1.09938 10.337 1.09938V2.09938ZM18.0747 9.83805C18.0747 14.1062 14.6031 17.5767 10.337 17.5767V18.5767C15.1554 18.5767 19.0747 14.6585 19.0747 9.83805H18.0747ZM10.337 17.5767C6.06985 17.5767 2.59835 14.1062 2.59835 9.83805H1.59835C1.59835 14.6585 5.51764 18.5767 10.337 18.5767V17.5767ZM17.6784 16.3644C19.2256 14.6259 20.173 12.3432 20.173 9.83805H19.173C19.173 12.0856 18.3241 14.1347 16.9314 15.6995L17.6784 16.3644ZM20.173 9.83805C20.173 4.41307 15.7601 0 10.337 0V1C15.2077 1 19.173 4.96521 19.173 9.83805H20.173ZM10.337 0C4.91402 0 0.5 4.413 0.5 9.83805H1.5C1.5 4.96528 5.46631 1 10.337 1V0ZM0.5 9.83805C0.5 15.2631 4.91402 19.6761 10.337 19.6761V18.6761C5.46631 18.6761 1.5 14.7108 1.5 9.83805H0.5ZM10.337 19.6761C12.8426 19.6761 15.1252 18.7242 16.8601 17.1816L16.1956 16.4343C14.6334 17.8234 12.5841 18.6761 10.337 18.6761V19.6761ZM16.1743 17.1615L20.7062 21.6934L21.4133 20.9863L16.8814 16.4544L16.1743 17.1615ZM20.7096 21.6968C20.9146 21.898 21.1821 22 21.4498 22V21C21.4362 21 21.4225 20.9953 21.4099 20.983L20.7096 21.6968ZM21.4498 22C21.7161 22 21.9857 21.8981 22.1903 21.6934L21.4832 20.9863C21.4744 20.9952 21.4627 21 21.4498 21V22ZM22.1903 21.6934C22.6001 21.2836 22.6001 20.6201 22.1903 20.2103L21.4832 20.9174C21.5025 20.9367 21.5025 20.967 21.4832 20.9863L22.1903 21.6934ZM22.1903 20.2103L17.6584 15.6784L16.9513 16.3855L21.4832 20.9174L22.1903 20.2103Z" fill="black"/>
</svg>
