<svg width="23" height="22" viewBox="0 0 23 22" fill="none" xmlns="http://www.w3.org/2000/svg">
<path fill-rule="evenodd" clip-rule="evenodd" d="M2.09835 9.83805C2.09835 5.29375 5.79375 1.59938 10.337 1.59938C14.8793 1.59938 18.5747 5.29375 18.5747 9.83805C18.5747 14.3824 14.8793 18.0767 10.337 18.0767C5.79375 18.0767 2.09835 14.3824 2.09835 9.83805ZM17.3049 16.0319C18.7748 14.3803 19.673 12.2144 19.673 9.83805C19.673 4.68914 15.4839 0.5 10.337 0.5C5.19016 0.5 1 4.68914 1 9.83805C1 14.987 5.19016 19.1761 10.337 19.1761C12.7134 19.1761 14.8793 18.2738 16.5278 16.808L21.0597 21.3399C21.1685 21.4466 21.3092 21.5 21.4498 21.5C21.5894 21.5 21.73 21.4466 21.8368 21.3399C22.0513 21.1253 22.0513 20.7784 21.8368 20.5638L17.3049 16.0319Z" fill="black"/>
<path d="M17.3049 16.0319L17.2302 15.9655L17.1675 16.0359L17.2342 16.1027L17.3049 16.0319ZM16.5278 16.808L16.5985 16.7373L16.5319 16.6706L16.4614 16.7332L16.5278 16.808ZM21.0597 21.3399L20.989 21.4106L20.9897 21.4112L21.0597 21.3399ZM21.8368 20.5638L21.9075 20.4931L21.8368 20.5638ZM2.19835 9.83805C2.19835 5.34898 5.84897 1.69938 10.337 1.69938V1.49938C5.73853 1.49938 1.99835 5.23851 1.99835 9.83805H2.19835ZM10.337 1.69938C14.8241 1.69938 18.4747 5.34897 18.4747 9.83805H18.6747C18.6747 5.23852 14.9345 1.49938 10.337 1.49938V1.69938ZM18.4747 9.83805C18.4747 14.3271 14.8241 17.9767 10.337 17.9767V18.1767C14.9345 18.1767 18.6747 14.4376 18.6747 9.83805H18.4747ZM10.337 17.9767C5.84897 17.9767 2.19835 14.3271 2.19835 9.83805H1.99835C1.99835 14.4376 5.73853 18.1767 10.337 18.1767V17.9767ZM17.3796 16.0984C18.865 14.4294 19.773 12.2402 19.773 9.83805H19.573C19.573 12.1886 18.6847 14.3312 17.2302 15.9655L17.3796 16.0984ZM19.773 9.83805C19.773 4.63392 15.5391 0.4 10.337 0.4V0.6C15.4286 0.6 19.573 4.74435 19.573 9.83805H19.773ZM10.337 0.4C5.13494 0.4 0.9 4.63391 0.9 9.83805H1.1C1.1 4.74437 5.24539 0.6 10.337 0.6V0.4ZM0.9 9.83805C0.9 15.0422 5.13494 19.2761 10.337 19.2761V19.0761C5.24539 19.0761 1.1 14.9317 1.1 9.83805H0.9ZM10.337 19.2761C12.7392 19.2761 14.9285 18.3639 16.5943 16.8827L16.4614 16.7332C14.8301 18.1837 12.6875 19.0761 10.337 19.0761V19.2761ZM16.4571 16.8787L20.989 21.4106L21.1304 21.2692L16.5985 16.7373L16.4571 16.8787ZM20.9897 21.4112C21.1178 21.5369 21.2838 21.6 21.4498 21.6V21.4C21.3346 21.4 21.2193 21.3564 21.1298 21.2685L20.9897 21.4112ZM21.4498 21.6C21.6147 21.6 21.7812 21.5369 21.9075 21.4106L21.7661 21.2692C21.6789 21.3563 21.5641 21.4 21.4498 21.4V21.6ZM21.9075 21.4106C22.1611 21.157 22.1611 20.7467 21.9075 20.4931L21.7661 20.6345C21.9416 20.81 21.9416 21.0937 21.7661 21.2692L21.9075 21.4106ZM21.9075 20.4931L17.3756 15.9612L17.2342 16.1027L21.7661 20.6345L21.9075 20.4931Z" fill="black"/>
</svg>
